<svg width="17" height="17" viewBox="0 0 17 17" fill="none" xmlns="http://www.w3.org/2000/svg">
<path d="M3.01562 16.8633C1.52148 16.8633 0.774414 16.3594 0.774414 15.3516C0.774414 14.7539 0.953125 14.127 1.31055 13.4707C1.67383 12.8145 2.19238 12.2021 2.86621 11.6338C3.5459 11.0654 4.36035 10.6055 5.30957 10.2539C6.25879 9.89648 7.3252 9.71777 8.50879 9.71777C9.68066 9.71777 10.7412 9.89648 11.6904 10.2539C12.6455 10.6055 13.46 11.0654 14.1338 11.6338C14.8076 12.2021 15.3232 12.8145 15.6807 13.4707C16.0439 14.127 16.2256 14.7539 16.2256 15.3516C16.2256 16.3594 15.4785 16.8633 13.9844 16.8633H3.01562ZM2.73438 15.3428H14.2744C14.374 15.3428 14.4443 15.3252 14.4854 15.29C14.5322 15.2549 14.5557 15.1963 14.5557 15.1143C14.5557 14.7744 14.4238 14.3877 14.1602 13.9541C13.8965 13.5146 13.5039 13.0898 12.9824 12.6797C12.4668 12.2637 11.834 11.9209 11.084 11.6514C10.334 11.376 9.47559 11.2383 8.50879 11.2383C7.53613 11.2383 6.67188 11.376 5.91602 11.6514C5.16602 11.9209 4.5332 12.2637 4.01758 12.6797C3.50195 13.0898 3.10938 13.5146 2.83984 13.9541C2.57617 14.3877 2.44434 14.7744 2.44434 15.1143C2.44434 15.1963 2.46484 15.2549 2.50586 15.29C2.55273 15.3252 2.62891 15.3428 2.73438 15.3428ZM8.50879 8.68945C7.7998 8.68945 7.15234 8.50195 6.56641 8.12695C5.98633 7.75195 5.52344 7.25098 5.17773 6.62402C4.83203 5.99121 4.65918 5.29395 4.65918 4.53223C4.65918 3.78223 4.83203 3.09961 5.17773 2.48438C5.52344 1.86328 5.98633 1.36816 6.56641 0.999023C7.15234 0.629883 7.7998 0.445312 8.50879 0.445312C9.21777 0.445312 9.8623 0.626953 10.4424 0.990234C11.0283 1.35352 11.4912 1.84277 11.8311 2.45801C12.1768 3.07324 12.3496 3.75879 12.3496 4.51465C12.3496 5.28223 12.1768 5.98242 11.8311 6.61523C11.4854 7.24805 11.0225 7.75195 10.4424 8.12695C9.8623 8.50195 9.21777 8.68945 8.50879 8.68945ZM8.50879 7.16016C8.91895 7.16016 9.29395 7.0459 9.63379 6.81738C9.97363 6.58301 10.2461 6.2666 10.4512 5.86816C10.6562 5.46387 10.7588 5.0127 10.7588 4.51465C10.7588 4.02832 10.6562 3.59473 10.4512 3.21387C10.2461 2.82715 9.97363 2.52246 9.63379 2.2998C9.29395 2.07715 8.91895 1.96582 8.50879 1.96582C8.09863 1.96582 7.72363 2.08008 7.38379 2.30859C7.04395 2.53125 6.77148 2.83594 6.56641 3.22266C6.36133 3.60938 6.25879 4.0459 6.25879 4.53223C6.25879 5.02441 6.36133 5.47266 6.56641 5.87695C6.77148 6.27539 7.04395 6.58887 7.38379 6.81738C7.72949 7.0459 8.10449 7.16016 8.50879 7.16016Z" fill="#F5E453"/>
</svg>
