<svg width="23" height="22" viewBox="0 0 23 22" fill="none" xmlns="http://www.w3.org/2000/svg">
<path d="M10.5039 21.6621C10.0807 21.6621 9.71289 21.5384 9.40039 21.291C9.08789 21.0501 8.88607 20.7279 8.79492 20.3242L8.4043 18.6641L8.18945 18.5957L6.75391 19.4746C6.38932 19.7025 6.00846 19.7871 5.61133 19.7285C5.2207 19.6764 4.87891 19.5007 4.58594 19.2012L3.20898 17.834C2.90299 17.528 2.72396 17.1797 2.67188 16.7891C2.6263 16.3919 2.71745 16.0176 2.94531 15.666L3.83398 14.2402L3.75586 14.0352L2.11523 13.6445C1.71159 13.5469 1.38607 13.3418 1.13867 13.0293C0.897786 12.7168 0.777344 12.349 0.777344 11.9258V10.0117C0.777344 9.58854 0.897786 9.2207 1.13867 8.9082C1.37956 8.5957 1.70508 8.39062 2.11523 8.29297L3.74609 7.89258L3.82422 7.67773L2.93555 6.25195C2.71419 5.90039 2.6263 5.5293 2.67188 5.13867C2.72396 4.74805 2.90299 4.39648 3.20898 4.08398L4.57617 2.70703C4.87565 2.41406 5.2207 2.24154 5.61133 2.18945C6.00195 2.13086 6.3763 2.21224 6.73438 2.43359L8.16992 3.32227L8.4043 3.23438L8.79492 1.57422C8.88607 1.17708 9.08789 0.854818 9.40039 0.607422C9.71289 0.360026 10.0807 0.236328 10.5039 0.236328H12.4961C12.9193 0.236328 13.2871 0.360026 13.5996 0.607422C13.9121 0.848307 14.1139 1.17057 14.2051 1.57422L14.5859 3.23438L14.8203 3.32227L16.2656 2.43359C16.6172 2.21224 16.9883 2.13086 17.3789 2.18945C17.776 2.24154 18.1211 2.41406 18.4141 2.70703L19.791 4.08398C20.097 4.39648 20.2728 4.74805 20.3184 5.13867C20.3704 5.5293 20.2858 5.90039 20.0645 6.25195L19.166 7.67773L19.2539 7.89258L20.8848 8.29297C21.2884 8.39062 21.6107 8.5957 21.8516 8.9082C22.099 9.2207 22.2227 9.58854 22.2227 10.0117V11.9258C22.2227 12.349 22.099 12.7168 21.8516 13.0293C21.6107 13.3418 21.2884 13.5469 20.8848 13.6445L19.2441 14.0352L19.1562 14.2402L20.0547 15.666C20.276 16.0176 20.3607 16.3919 20.3086 16.7891C20.263 17.1797 20.0905 17.528 19.791 17.834L18.4141 19.2012C18.1146 19.5007 17.7663 19.6764 17.3691 19.7285C16.9785 19.7871 16.6074 19.7025 16.2559 19.4746L14.8105 18.5957L14.5859 18.6641L14.2051 20.3242C14.1139 20.7279 13.9121 21.0501 13.5996 21.291C13.2871 21.5384 12.9193 21.6621 12.4961 21.6621H10.5039ZM10.8164 19.709H12.1836C12.3398 19.709 12.4277 19.6341 12.4473 19.4844L13.0332 17.0918C13.3652 17.0202 13.6777 16.9225 13.9707 16.7988C14.2637 16.6751 14.5404 16.5319 14.8008 16.3691L16.8906 17.6484C17.0143 17.7331 17.1315 17.7201 17.2422 17.6094L18.1992 16.6523C18.3034 16.5547 18.3132 16.4408 18.2285 16.3105L16.9395 14.2207C17.0892 13.9733 17.2259 13.6999 17.3496 13.4004C17.4733 13.0944 17.5742 12.7852 17.6523 12.4727L20.0547 11.9062C20.1979 11.8802 20.2695 11.7891 20.2695 11.6328V10.2949C20.2695 10.1452 20.1979 10.0573 20.0547 10.0312L17.6523 9.44531C17.5807 9.11979 17.4798 8.80729 17.3496 8.50781C17.2194 8.20182 17.0859 7.93164 16.9492 7.69727L18.2383 5.60742C18.3229 5.47721 18.3132 5.36003 18.209 5.25586L17.252 4.30859C17.1413 4.21094 17.0208 4.19792 16.8906 4.26953L14.8008 5.53906C14.5469 5.38932 14.2702 5.24935 13.9707 5.11914C13.6777 4.98893 13.3652 4.88802 13.0332 4.81641L12.4473 2.41406C12.4277 2.26432 12.3398 2.18945 12.1836 2.18945H10.8164C10.6602 2.18945 10.569 2.26432 10.543 2.41406L9.97656 4.79688C9.65104 4.875 9.32552 4.98242 9 5.11914C8.68099 5.24935 8.40755 5.38607 8.17969 5.5293L6.09961 4.25977C5.9694 4.18815 5.84896 4.20443 5.73828 4.30859L4.77148 5.24609C4.67383 5.35026 4.66732 5.4707 4.75195 5.60742L6.04102 7.69727C5.9043 7.93164 5.77083 8.20182 5.64062 8.50781C5.51042 8.80729 5.40951 9.12305 5.33789 9.45508L2.94531 10.0312C2.80208 10.0573 2.73047 10.1452 2.73047 10.2949V11.6328C2.73047 11.7891 2.80208 11.8802 2.94531 11.9062L5.34766 12.4727C5.41927 12.7917 5.51693 13.1009 5.64062 13.4004C5.76432 13.6934 5.90104 13.9668 6.05078 14.2207L4.75195 16.3105C4.68034 16.4473 4.69336 16.5645 4.79102 16.6621L5.74805 17.6191C5.86523 17.7298 5.98242 17.7428 6.09961 17.6582L8.19922 16.3691C8.45312 16.5319 8.72982 16.6784 9.0293 16.8086C9.33529 16.9323 9.64779 17.0267 9.9668 17.0918L10.543 19.4844C10.569 19.6341 10.6602 19.709 10.8164 19.709ZM11.5 14.6504C10.8229 14.6504 10.2044 14.4844 9.64453 14.1523C9.08464 13.8138 8.63542 13.3646 8.29688 12.8047C7.96484 12.2448 7.79883 11.6263 7.79883 10.9492C7.79883 10.2786 7.96484 9.66341 8.29688 9.10352C8.63542 8.54362 9.08464 8.09766 9.64453 7.76562C10.2044 7.43359 10.8229 7.26758 11.5 7.26758C12.1771 7.26758 12.7956 7.43359 13.3555 7.76562C13.9154 8.09766 14.3613 8.54362 14.6934 9.10352C15.0254 9.66341 15.1914 10.2786 15.1914 10.9492C15.1914 11.6263 15.0254 12.2448 14.6934 12.8047C14.3613 13.3646 13.9154 13.8138 13.3555 14.1523C12.7956 14.4844 12.1771 14.6504 11.5 14.6504ZM11.5 12.8535C11.8385 12.8535 12.1478 12.7689 12.4277 12.5996C12.7142 12.4238 12.9421 12.1927 13.1113 11.9062C13.2871 11.6133 13.375 11.2943 13.375 10.9492C13.375 10.6042 13.2871 10.2917 13.1113 10.0117C12.9421 9.72526 12.7142 9.4974 12.4277 9.32812C12.1478 9.15234 11.8385 9.06445 11.5 9.06445C11.1549 9.06445 10.8392 9.14909 10.5527 9.31836C10.2663 9.48763 10.0352 9.71549 9.85938 10.002C9.6901 10.2884 9.60547 10.6042 9.60547 10.9492C9.60547 11.3008 9.6901 11.6198 9.85938 11.9062C10.0352 12.1927 10.2663 12.4238 10.5527 12.5996C10.8392 12.7689 11.1549 12.8535 11.5 12.8535Z" fill="#F5E453"/>
</svg>
