<svg width="22" height="22" viewBox="0 0 22 22" fill="none" xmlns="http://www.w3.org/2000/svg">
<path d="M9.30618 1.6978C10.0902 0.449098 11.9098 0.449095 12.6938 1.6978L14.9514 5.2935C15.2254 5.72998 15.6574 6.04383 16.1572 6.16958L20.2746 7.20553C21.7044 7.56529 22.2667 9.29586 21.3214 10.4274L18.5993 13.6856C18.2689 14.0811 18.1039 14.5889 18.1387 15.1031L18.4258 19.339C18.5255 20.8101 17.0534 21.8797 15.6852 21.3303L11.7452 19.7482C11.267 19.5562 10.733 19.5562 10.2548 19.7482L6.31485 21.3303C4.94661 21.8797 3.47449 20.8101 3.57419 19.3391L3.86128 15.1031C3.89613 14.5889 3.73113 14.0811 3.40069 13.6856L0.67861 10.4274C-0.26671 9.29586 0.295586 7.56529 1.72545 7.20553L5.84279 6.16958C6.34259 6.04383 6.77456 5.72999 7.04861 5.2935L9.30618 1.6978Z" fill="#F5E453"/>
</svg>
