<svg width="21" height="21" viewBox="0 0 21 21" fill="none" xmlns="http://www.w3.org/2000/svg">
<path d="M0.401367 7.50586C0.178711 6.65625 0.231445 5.95312 0.55957 5.39648C0.887695 4.83398 1.48242 4.43555 2.34375 4.20117L16.0459 0.518555C16.9014 0.290039 17.6162 0.331055 18.1904 0.641602C18.7646 0.952148 19.1602 1.53223 19.377 2.38184L19.6494 3.41016C19.7725 3.87891 19.7314 4.29492 19.5264 4.6582C19.3213 5.01563 18.9756 5.25879 18.4893 5.3877L10.2275 7.60254H19.1045C19.6084 7.60254 20.0039 7.74902 20.291 8.04199C20.584 8.33496 20.7305 8.72754 20.7305 9.21973V17.5869C20.7305 18.4717 20.499 19.1426 20.0361 19.5996C19.5791 20.0566 18.9023 20.2852 18.0059 20.2852H3.82031C2.92383 20.2852 2.24414 20.0566 1.78125 19.5996C1.31836 19.1426 1.08691 18.4717 1.08691 17.5869V10.0283L0.401367 7.50586ZM2.72168 17.4463C2.72168 17.8447 2.82422 18.1436 3.0293 18.3428C3.23438 18.542 3.53027 18.6416 3.91699 18.6416H17.9092C18.29 18.6416 18.583 18.542 18.7881 18.3428C18.999 18.1436 19.1045 17.8447 19.1045 17.4463V13.1133H2.72168V17.4463ZM3.06445 8.13867L5.68359 7.43555L6.29883 4.79883L3.70605 5.51074L3.06445 8.13867ZM8.25879 6.75L11.0273 6.01172L11.6514 3.375L8.87402 4.11328L8.25879 6.75ZM13.5938 5.31738L16.2041 4.62305L16.8105 2.00391C16.7109 2.02734 16.6084 2.05078 16.5029 2.07422C16.3975 2.09766 16.2891 2.12109 16.1777 2.14453L14.2178 2.68945L13.5938 5.31738ZM3.49512 11.707H6.19336L7.51172 9.29004H6.91406L4.76074 9.37793L3.49512 11.707ZM8.86523 11.707H11.7305L13.0488 9.29004H10.1748L8.86523 11.707ZM14.4023 11.707H17.0918L18.4102 9.29004H15.7119L14.4023 11.707Z" fill="#F5E453"/>
</svg>
